<svg width="353" height="41" viewBox="0 0 353 41" fill="none" xmlns="http://www.w3.org/2000/svg">
<path d="M109.457 11.8431C109.685 12.8922 109.955 14.0744 110.213 14.9919L112.699 23.5667H106.213L108.699 14.995C108.959 14.0744 109.232 12.8922 109.457 11.8431ZM112.975 1.20073H105.988L105.849 1.65187L93.9465 40.3768H98.332C99.5002 40.3768 100.391 40.207 101.112 39.606C101.83 39.0004 102.247 38.0767 102.618 36.838L104.463 30.6871H114.452L116.3 36.8349C116.673 38.0798 117.103 39.0096 117.834 39.6091C118.561 40.207 119.46 40.3768 120.628 40.3768H124.968L112.975 1.20073Z" fill="#272932"/>
<path d="M61.0389 32.2646L60.5189 32.5598L61.0338 32.2524L56.9833 22.6147C56.4374 21.35 55.841 20.6068 55.374 20.1832C55.8061 19.7137 56.3766 18.949 56.9251 17.7669L64.6042 1.2015H56.7919L50.1865 15.7268C49.9769 16.1382 49.7803 16.3018 49.4698 16.4348C49.1554 16.5603 48.7014 16.5924 48.1296 16.5893H45.2977V5.50801C45.2977 4.17294 45.0571 3.05807 44.4103 2.27966C43.757 1.50278 42.8088 1.2015 41.6548 1.2015H38.1425V8.96729V15.0447V40.3806H45.2977V23.8718H47.7686C48.3935 23.8718 48.9135 23.8948 49.2693 24.0232C49.6315 24.1609 49.8359 24.326 50.048 24.7833L55.2679 37.1752C55.8061 38.4659 56.4154 39.3315 57.2537 39.8193C58.0907 40.2995 59.0325 40.3775 60.2485 40.3806H64.581L64.1385 39.3759C64.1346 39.3682 61.4762 33.3489 61.0389 32.2646Z" fill="#272932"/>
<path d="M91.3689 1.2038H88.5345C87.4 1.20074 86.4543 1.50201 85.7971 2.27584C85.1451 3.04966 84.8851 4.16605 84.8903 5.50724V17.2293H74.2732V5.50724C74.2732 4.17216 74.0365 3.05883 73.3871 2.27889C72.7299 1.50201 71.7842 1.20074 70.6277 1.2038H67.2112V8.96957V16.1924V40.3798H74.2732V24.5134H84.8903V40.3798H91.9497V16.6467V8.96957V1.2038H91.3689Z" fill="#272932"/>
<path d="M152.15 1.20074H149.313C148.156 1.20074 147.209 1.50201 146.559 2.2789C145.907 3.05884 145.667 4.17216 145.667 5.50877V22.8143C145.667 23.3939 145.69 24.0332 145.722 24.6632C145.285 23.66 144.786 22.5926 144.295 21.7423L133.766 1.20074H126.964V28.7648V32.611V40.3798H130.383H130.394C131.54 40.3798 132.483 40.0969 133.135 39.3261C133.79 38.5493 134.026 37.4344 134.026 36.0703V18.8198C134.026 18.2509 134.007 17.6193 133.976 16.9984C134.411 18.0047 134.914 19.066 135.407 19.9025L145.976 40.3798H152.729V15.0455V8.96958V1.20074H152.15Z" fill="#272932"/>
<path d="M174.959 24.5554L170.608 10.6663C170.044 8.84187 169.344 5.6334 169.344 5.6334H169.251C169.251 5.6334 168.549 8.84187 167.987 10.6663L163.679 24.5554H174.959ZM167.566 1.42783H171.075L183.562 40.324H182.589C180.25 40.324 179.613 39.7704 178.769 37.1155L175.847 27.9306H162.793L159.824 37.1155C158.982 39.7704 158.394 40.324 156.049 40.324H155.099L167.566 1.42783Z" fill="#272932"/>
<path d="M231.157 24.5554L226.804 10.6663C226.242 8.84187 225.54 5.6334 225.54 5.6334H225.447C225.447 5.6334 224.744 8.84187 224.18 10.6663L219.875 24.5554H231.157ZM223.761 1.42783H227.271L239.757 40.324H238.784C236.445 40.324 235.809 39.7704 234.967 37.1155L232.046 27.9306H218.989L216.02 37.1155C215.178 39.7704 214.589 40.324 212.248 40.324H211.293L223.761 1.42783Z" fill="#272932"/>
<path d="M295.966 1.42783H299.288L307.993 24.0569C308.789 26.0495 309.633 28.6478 309.633 28.6478H309.726C309.726 28.6478 310.567 26.0495 311.315 24.0569L320.023 1.42783H323.345L326.21 40.324H325.265C323.252 40.324 322.549 39.3254 322.41 36.9473L320.866 13.3242C320.723 11.2184 320.723 7.89982 320.723 7.89982H320.629C320.629 7.89982 319.739 11.3316 318.944 13.3242L311.131 33.0736H308.184L300.413 13.3242C299.663 11.3866 298.683 7.78971 298.683 7.78971H298.588C298.588 7.78971 298.588 11.2184 298.447 13.3242L296.901 36.9473C296.761 39.3254 296.059 40.324 294.046 40.324H293.28L295.966 1.42783Z" fill="#272932"/>
<path d="M337.593 23.3936L326.135 1.4283H327.108C329.354 1.4283 330.195 1.81369 331.599 4.52513L337.171 15.5346C338.2 17.5808 339.179 19.9083 339.179 19.9083H339.276C339.276 19.9083 340.258 17.5808 341.286 15.5346L346.856 4.52513C348.26 1.81369 349.101 1.4283 351.351 1.4283H352.324L340.867 23.3936V40.3229H337.593V23.3936Z" fill="#272932"/>
<path d="M208.083 10.8726C206.816 7.6794 203.229 4.02591 197.969 4.02591C190.669 4.02591 185.055 10.7778 185.055 20.1829C185.055 29.478 190.624 36.9486 198.113 36.9486C201.678 36.9486 204.536 35.5478 206.315 33.9971C208.478 32.1161 210.75 34.2923 210.75 34.2923C210.75 34.2923 206.209 40.596 198.065 40.596C188.424 40.596 181.637 31.5242 181.637 20.1829C181.637 8.95178 188.61 0.376999 197.878 0.376999C202.558 0.376999 208.328 2.83152 210.514 8.69791C211.537 11.3589 211.668 12.6236 211.668 12.6236C211.668 12.6236 208.935 13.0105 208.083 10.8726Z" fill="#272932"/>
<path d="M251.673 36.8914H246.15C245.496 36.8914 245.122 36.506 245.122 35.6725V4.85714H251.673C259.724 4.85714 265.105 10.5018 265.105 20.846C265.105 31.2498 259.769 36.8914 251.673 36.8914ZM251.999 1.42846H241.842V4.85714V8.14819V36.9479C241.842 39.326 242.686 40.3231 244.697 40.3231H251.999C261.922 40.3231 268.521 33.2379 268.521 20.846C268.521 8.56722 261.922 1.42846 251.999 1.42846Z" fill="#272932"/>
<path d="M287.118 36.8914H283.732H275.56C274.904 36.8914 274.53 36.506 274.53 35.6725V22.4532H286.885V19.023H274.53V4.85714H282.911H285.76H289.882V4.80667C289.882 2.4225 289.037 1.42846 287.024 1.42846H271.252V4.85714V9.31657V36.9479C271.252 39.326 272.097 40.3231 274.107 40.3231H288.337C290.346 40.3231 291.19 39.326 291.19 36.9479V36.8914H287.118Z" fill="#272932"/>
<path d="M1.45752 37.9072C1.45752 37.9072 -3.78308 23.0853 5.61014 12.033C14.1444 1.99929 27.0201 0.448589 29.2543 0.375183C29.2543 0.375183 32.7122 13.7902 24.0796 28.9991C15.4561 44.211 3.49502 40.0849 3.49502 40.0849C3.49502 40.0849 15.3113 22.2778 13.8831 22.3848C12.8921 22.4552 6.69035 30.5253 1.45752 37.9072Z" fill="#90BA24"/>
</svg>
